<svg width="55" height="56" viewBox="0 0 55 56" fill="none" xmlns="http://www.w3.org/2000/svg">
<path d="M46.365 9.13862C45.8064 8.57995 45.1432 8.13679 44.4133 7.83444C43.6835 7.53208 42.9012 7.37646 42.1111 7.37646C41.3211 7.37646 40.5388 7.53208 39.8089 7.83444C39.079 8.13679 38.4158 8.57995 37.8572 9.13862L23.2032 23.7858C22.329 24.6663 21.6333 25.7075 21.1544 26.8521L18.2394 33.8886C18.0442 34.3597 17.993 34.8782 18.0925 35.3784C18.1919 35.8786 18.4375 36.3381 18.7981 36.6987C19.1587 37.0593 19.6182 37.3049 20.1184 37.4043C20.6186 37.5038 21.137 37.4526 21.6082 37.2574L28.6447 34.3424C29.7893 33.8635 30.8305 33.1678 31.711 32.2936L46.3616 17.643C47.4888 16.515 48.122 14.9855 48.122 13.3908C48.122 11.7961 47.4923 10.2666 46.365 9.13862Z" fill="#854DA0"/>
<path d="M16.3281 12.5312C13.9563 12.5312 12.0312 14.4563 12.0312 16.8281V39.1719C12.0312 41.5438 13.9563 43.4688 16.3281 43.4688H38.6719C41.0438 43.4688 42.9688 41.5438 42.9688 39.1719V31.4375C42.9688 30.7537 43.2404 30.098 43.7239 29.6145C44.2074 29.131 44.8631 28.8594 45.5469 28.8594C46.2306 28.8594 46.8864 29.131 47.3699 29.6145C47.8534 30.098 48.125 30.7537 48.125 31.4375V39.1719C48.125 41.679 47.129 44.0834 45.3562 45.8562C43.5834 47.629 41.179 48.625 38.6719 48.625H16.3281C13.821 48.625 11.4166 47.629 9.64376 45.8562C7.87095 44.0834 6.875 41.679 6.875 39.1719V16.8281C6.875 14.321 7.87095 11.9166 9.64376 10.1438C11.4166 8.37095 13.821 7.375 16.3281 7.375H24.0625C24.7463 7.375 25.402 7.64662 25.8855 8.13012C26.369 8.61361 26.6406 9.26936 26.6406 9.95312C26.6406 10.6369 26.369 11.2926 25.8855 11.7761C25.402 12.2596 24.7463 12.5312 24.0625 12.5312H16.3281Z" fill="#854DA0"/>
</svg>
