<svg width="30" height="30" viewBox="0 0 30 30" fill="none" xmlns="http://www.w3.org/2000/svg">
<path fill-rule="evenodd" clip-rule="evenodd" d="M19.425 3.75C19.128 4.12031 18.9041 4.54364 18.765 4.9975H17.975C16.9804 4.9975 16.0266 5.39259 15.3233 6.09585C14.6201 6.79911 14.225 7.75294 14.225 8.7475C14.225 9.74206 14.6201 10.6959 15.3233 11.3991C16.0266 12.1024 16.9804 12.4975 17.975 12.4975H18.7625C18.9375 13.0675 19.25 13.605 19.7 14.055C20.066 14.4206 20.5037 14.7065 20.9856 14.8947C21.4675 15.0829 21.9831 15.1694 22.5 15.1488V23.75H25C25.3315 23.75 25.6495 23.8817 25.8839 24.1161C26.1183 24.3505 26.25 24.6685 26.25 25C26.25 25.3315 26.1183 25.6495 25.8839 25.8839C25.6495 26.1183 25.3315 26.25 25 26.25H5C4.66848 26.25 4.35054 26.1183 4.11612 25.8839C3.8817 25.6495 3.75 25.3315 3.75 25C3.75 24.6685 3.8817 24.3505 4.11612 24.1161C4.35054 23.8817 4.66848 23.75 5 23.75V6.25C5 5.58696 5.26339 4.95107 5.73223 4.48223C6.20107 4.01339 6.83696 3.75 7.5 3.75H19.425ZM16.875 16.25C16.3777 16.25 15.9008 16.4475 15.5492 16.7992C15.1975 17.1508 15 17.6277 15 18.125C15 18.6223 15.1975 19.0992 15.5492 19.4508C15.9008 19.8025 16.3777 20 16.875 20C17.3723 20 17.8492 19.8025 18.2008 19.4508C18.5525 19.0992 18.75 18.6223 18.75 18.125C18.75 17.6277 18.5525 17.1508 18.2008 16.7992C17.8492 16.4475 17.3723 16.25 16.875 16.25ZM23.2337 5.215L25.8838 7.865C26.1177 8.09936 26.2491 8.41698 26.2491 8.74813C26.2491 9.07927 26.1177 9.39689 25.8838 9.63125L23.2337 12.285C23.1185 12.4045 22.9807 12.4998 22.8282 12.5654C22.6757 12.631 22.5117 12.6656 22.3458 12.6672C22.1798 12.6687 22.0152 12.6372 21.8615 12.5745C21.7079 12.5117 21.5682 12.419 21.4508 12.3017C21.3333 12.1845 21.2404 12.045 21.1775 11.8914C21.1145 11.7378 21.0828 11.5732 21.0841 11.4073C21.0854 11.2413 21.1198 11.0772 21.1852 10.9247C21.2506 10.7721 21.3457 10.6341 21.465 10.5188L21.985 9.9975H17.975C17.6435 9.9975 17.3255 9.8658 17.0911 9.63138C16.8567 9.39696 16.725 9.07902 16.725 8.7475C16.725 8.41598 16.8567 8.09804 17.0911 7.86362C17.3255 7.6292 17.6435 7.4975 17.975 7.4975H21.9812L21.4663 6.9825C21.2386 6.74675 21.1126 6.43099 21.1154 6.10325C21.1183 5.7755 21.2497 5.46199 21.4815 5.23023C21.7132 4.99847 22.0268 4.86701 22.3545 4.86416C22.6822 4.86131 22.998 4.9873 23.2337 5.215Z" fill="#C53D40"/>
</svg>
