<svg width="55" height="56" viewBox="0 0 55 56" fill="none" xmlns="http://www.w3.org/2000/svg">
<path fill-rule="evenodd" clip-rule="evenodd" d="M32.3954 7.375L28.0939 11.6765C26.8596 12.9097 26.1405 14.5662 26.0822 16.3101C26.0239 18.0539 26.6308 19.7547 27.78 21.0677L28.0893 21.3977L32.9477 26.2606C33.9624 27.2777 35.2703 27.9513 36.6875 28.1868C38.1048 28.4223 39.5602 28.2079 40.8493 27.5738L41.2504 27.3583V44.0417H45.8337C46.4178 44.0423 46.9796 44.266 47.4044 44.6669C47.8291 45.0679 48.0847 45.6159 48.1189 46.199C48.1531 46.7821 47.9634 47.3563 47.5885 47.8042C47.2136 48.2521 46.6819 48.54 46.1019 48.609L45.8337 48.625H9.16706C8.58296 48.6244 8.02115 48.4007 7.59642 47.9997C7.17169 47.5988 6.9161 47.0507 6.88187 46.4676C6.84764 45.8845 7.03735 45.3104 7.41225 44.8625C7.78714 44.4146 8.31892 44.1267 8.89893 44.0577L9.16706 44.0417V11.9583C9.16669 10.802 9.60341 9.68828 10.3897 8.84041C11.1759 7.99254 12.2536 7.47318 13.4066 7.38646L13.7504 7.375H32.3954ZM30.9379 30.2917C30.0262 30.2917 29.1519 30.6538 28.5072 31.2985C27.8626 31.9431 27.5004 32.8175 27.5004 33.7292C27.5004 34.6409 27.8626 35.5152 28.5072 36.1598C29.1519 36.8045 30.0262 37.1667 30.9379 37.1667C31.8496 37.1667 32.7239 36.8045 33.3686 36.1598C34.0132 35.5152 34.3754 34.6409 34.3754 33.7292C34.3754 32.8175 34.0132 31.9431 33.3686 31.2985C32.7239 30.6538 31.8496 30.2917 30.9379 30.2917ZM36.1927 10.0608C36.6051 9.64983 37.1585 9.41121 37.7404 9.39344C38.3224 9.37566 38.8893 9.58008 39.326 9.96515C39.7627 10.3502 40.0365 10.8871 40.0917 11.4667C40.1469 12.0463 39.9795 12.6252 39.6233 13.0858L39.4331 13.3012L38.4866 14.2454H45.8337C46.4212 14.2414 46.9877 14.4631 47.4164 14.8648C47.845 15.2665 48.1031 15.8175 48.1372 16.4039C48.1713 16.9904 47.9789 17.5676 47.5997 18.0163C47.2205 18.4649 46.6835 18.7509 46.0996 18.815L45.8337 18.8288H38.4775L39.4308 19.7844C39.8378 20.1976 40.073 20.7498 40.0889 21.3297C40.1048 21.9095 39.9002 22.4737 39.5164 22.9087C39.1327 23.3436 38.5983 23.6168 38.021 23.6732C37.4437 23.7297 36.8665 23.5651 36.4058 23.2127L36.1881 23.0225L31.3298 18.1573C30.9355 17.7624 30.6989 17.2372 30.6643 16.6803C30.6297 16.1234 30.7995 15.5729 31.1418 15.1323L31.3321 14.9169L36.1904 10.0585L36.1927 10.0608Z" fill="#854DA0"/>
</svg>
